<svg xmlns="http://www.w3.org/2000/svg" xmlns:xlink="http://www.w3.org/1999/xlink">
<defs>
<symbol id="icon-star" viewBox="0 0 24 24" fill="currentColor">
	<path d="M12 17.27 18.18 21l-1.64-7.03L22 9.24l-7.19-.61L12 2 9.19 8.63 2 9.24l5.46 4.73L5.82 21 12 17.27z"/>
</symbol>
<symbol id="icon-menu" viewBox="0 0 24 24" fill="currentColor">
	<path d="M3 18h18v-2H3v2zm0-5h18v-2H3v2zm0-7v2h18V6H3z"/>
</symbol>
<symbol id="icon-expand-more" viewBox="0 0 24 24" fill="currentColor">
	<path d="M16.59 8.59L12 13.17 7.41 8.59 6 10l6 6 6-6-1.41-1.41z"/>
</symbol>
<symbol id="icon-expand-less" viewBox="0 0 24 24" fill="currentColor">
	<path d="M12 8l-6 6 1.41 1.41L12 10.83l4.59 4.58L18 14l-6-6z"/>
</symbol>
</defs>
</svg>
